<svg width="256" height="83" viewBox="0 0 256 83" fill="none" xmlns="http://www.w3.org/2000/svg">
<g clip-path="url(#clip0_1_3)">
<path d="M132.397 26.4287C132.251 37.9441 142.66 44.3707 150.501 48.1912C158.557 52.1117 161.263 54.6254 161.232 58.1308C161.17 63.4965 154.805 65.8642 148.848 65.9564C138.455 66.1178 132.412 63.1506 127.608 60.9059L123.864 78.4251C128.684 80.6467 137.609 82.5839 146.864 82.6684C168.589 82.6684 182.802 71.9447 182.879 55.3173C182.964 34.2158 153.691 33.0474 153.891 23.6152C153.96 20.7555 156.689 17.7037 162.669 16.9273C165.629 16.5352 173.8 16.2354 183.064 20.5018L186.7 3.5515C181.718 1.73731 175.315 0 167.343 0C146.895 0 132.512 10.8697 132.397 26.4287ZM221.638 1.46057C217.671 1.46057 214.328 3.77443 212.836 7.32593L181.803 81.4231H203.512L207.832 69.4848H234.36L236.867 81.4231H256L239.303 1.46057H221.638ZM224.675 23.0617L230.94 53.088H213.782L224.675 23.0617ZM106.076 1.46057L88.9643 81.4231H109.651L126.755 1.46057H106.076ZM75.4732 1.46057L53.9413 55.8861L45.2316 9.60903C44.2092 4.44322 40.1734 1.46057 35.6918 1.46057H0.491982L0 3.78211C7.22599 5.35031 15.436 7.87941 20.4096 10.5853C23.4537 12.2381 24.3224 13.6833 25.3217 17.6114L41.8185 81.4231H63.681L97.1973 1.46057H75.4732Z" fill="#9B9B9B"/>
</g>
<defs>
<clipPath id="clip0_1_3">
<rect width="256" height="83" fill="white"/>
</clipPath>
</defs>
</svg>
